<svg width="185" height="65" fill="none" xmlns="http://www.w3.org/2000/svg"><path opacity=".6" d="M19.938 42.74c.74 0 1.335.19 1.782.572.447.381.671.898.671 1.551 0 .653-.227 1.162-.682 1.529-.447.36-1.041.539-1.782.539l-.077.055h-1.782V50h-.88v-7.26h2.75zm-.011 3.421c.52 0 .906-.106 1.155-.319.257-.22.385-.546.385-.979 0-.433-.128-.755-.385-.968-.25-.22-.634-.33-1.155-.33h-1.859v2.596h1.859zm.506.176L22.831 50h-1.045l-2.09-3.179.737-.484zm6.022 3.773c-.52 0-.986-.114-1.397-.341a2.388 2.388 0 01-.946-.979c-.227-.433-.341-.946-.341-1.54 0-.594.113-1.104.34-1.529.228-.433.54-.763.936-.99a2.669 2.669 0 011.353-.341c.513 0 .95.11 1.309.33.367.22.645.52.836.902.19.374.286.796.286 1.265 0 .125-.004.238-.011.341a2.559 2.559 0 01-.033.275h-4.444v-.781h4.059l-.451.088c0-.528-.147-.935-.44-1.221-.286-.286-.664-.429-1.133-.429-.36 0-.671.084-.935.253a1.62 1.62 0 00-.605.715c-.14.308-.21.682-.21 1.122 0 .433.074.807.22 1.122.148.315.353.557.617.726.271.161.594.242.968.242.403 0 .73-.077.979-.231.257-.154.462-.363.616-.627l.693.407c-.14.25-.32.466-.54.649a2.326 2.326 0 01-.758.429 3.054 3.054 0 01-.968.143zm7.261-3.663c0-.41-.11-.726-.33-.946-.22-.227-.531-.341-.935-.341-.38 0-.704.084-.968.253-.264.161-.458.425-.583.792l-.715-.44c.147-.41.418-.74.814-.99.396-.257.888-.385 1.474-.385.396 0 .756.07 1.078.209.323.132.576.337.76.616.19.271.285.623.285 1.056v2.662c0 .264.14.396.418.396.14 0 .275-.018.407-.055l-.044.693c-.146.073-.337.11-.572.11a1.31 1.31 0 01-.572-.121.904.904 0 01-.396-.363 1.26 1.26 0 01-.143-.627v-.11l.22.033a1.49 1.49 0 01-.45.704 2.205 2.205 0 01-.716.396c-.264.08-.524.121-.78.121a2.44 2.44 0 01-.903-.165 1.535 1.535 0 01-.67-.495c-.162-.227-.243-.506-.243-.836 0-.41.136-.748.407-1.012.28-.271.664-.455 1.155-.55l2.178-.429v.726l-1.77.363c-.36.073-.628.176-.804.308a.649.649 0 00-.264.55.7.7 0 00.264.561c.184.14.44.209.77.209.213 0 .415-.026.605-.077a1.77 1.77 0 00.528-.253 1.27 1.27 0 00.363-.429 1.36 1.36 0 00.132-.616v-1.518zm3.855-4.477v6.633c0 .279.051.473.154.583.103.103.268.154.495.154.147 0 .268-.011.363-.033.095-.022.224-.062.385-.121l-.143.77a1.567 1.567 0 01-.385.11c-.14.03-.282.044-.43.044-.446 0-.78-.121-1-.363-.213-.242-.32-.612-.32-1.111V41.97h.88zM43.624 50v-7.26h5.093v.825h-4.212v2.343h3.277v.825h-3.277v2.442h4.377V50h-5.258zm8.83.11a3.28 3.28 0 01-1.485-.341 2.444 2.444 0 01-1.034-.968l.748-.539c.161.337.396.601.704.792.316.19.693.286 1.133.286.389 0 .693-.073.913-.22.22-.154.33-.352.33-.594a.642.642 0 00-.154-.418c-.095-.132-.282-.227-.56-.286l-1.32-.275c-.536-.11-.921-.293-1.156-.55-.227-.257-.34-.576-.34-.957 0-.3.084-.576.252-.825.176-.25.422-.447.737-.594.323-.154.7-.231 1.133-.231.543 0 1.001.106 1.375.319.374.213.653.513.836.902l-.737.484a1.284 1.284 0 00-.605-.704 1.773 1.773 0 00-.869-.231 1.9 1.9 0 00-.682.11.997.997 0 00-.429.308.687.687 0 00-.143.429c0 .161.055.312.165.451.11.132.316.227.616.286l1.375.286c.514.103.873.271 1.078.506.206.235.308.52.308.858 0 .345-.092.649-.275.913a1.76 1.76 0 01-.77.594c-.33.14-.711.209-1.144.209zm5.119-7.172v5.544c0 .271.077.473.231.605a.88.88 0 00.594.198c.213 0 .396-.037.55-.11a1.5 1.5 0 00.418-.297l.308.737a1.85 1.85 0 01-.605.363 2.187 2.187 0 01-.792.132c-.279 0-.539-.048-.781-.143a1.318 1.318 0 01-.583-.473c-.14-.22-.213-.506-.22-.858V43.18l.88-.242zm2.002 1.562v.759h-3.982V44.5h3.982zm4.52 1.947c0-.41-.11-.726-.33-.946-.22-.227-.531-.341-.935-.341-.381 0-.704.084-.968.253-.264.161-.458.425-.583.792l-.715-.44c.147-.41.418-.74.814-.99.396-.257.888-.385 1.474-.385.396 0 .756.07 1.078.209.323.132.576.337.76.616.19.271.285.623.285 1.056v2.662c0 .264.14.396.418.396.14 0 .275-.018.407-.055l-.044.693c-.146.073-.337.11-.572.11-.212 0-.403-.04-.572-.121a.903.903 0 01-.396-.363 1.258 1.258 0 01-.143-.627v-.11l.22.033a1.49 1.49 0 01-.45.704 2.206 2.206 0 01-.716.396c-.264.08-.524.121-.78.121a2.44 2.44 0 01-.903-.165 1.534 1.534 0 01-.67-.495c-.162-.227-.243-.506-.243-.836 0-.41.136-.748.407-1.012.279-.271.664-.455 1.155-.55l2.178-.429v.726l-1.77.363c-.36.073-.628.176-.804.308a.649.649 0 00-.264.55.7.7 0 00.264.561c.184.14.44.209.77.209.213 0 .415-.026.605-.077a1.77 1.77 0 00.528-.253 1.27 1.27 0 00.363-.429 1.36 1.36 0 00.132-.616v-1.518zm4.102-3.509v5.544c0 .271.077.473.231.605a.88.88 0 00.594.198c.213 0 .396-.037.55-.11a1.5 1.5 0 00.418-.297l.308.737a1.85 1.85 0 01-.605.363 2.187 2.187 0 01-.792.132c-.279 0-.539-.048-.781-.143a1.318 1.318 0 01-.583-.473c-.14-.22-.213-.506-.22-.858V43.18l.88-.242zm2.002 1.562v.759h-3.982V44.5h3.982zm3.607 5.61c-.52 0-.986-.114-1.397-.341a2.387 2.387 0 01-.946-.979c-.227-.433-.34-.946-.34-1.54 0-.594.113-1.104.34-1.529a2.4 2.4 0 01.935-.99 2.669 2.669 0 011.353-.341c.514 0 .95.11 1.31.33.366.22.645.52.835.902.191.374.286.796.286 1.265 0 .125-.003.238-.01.341a2.61 2.61 0 01-.034.275h-4.444v-.781h4.06l-.452.088c0-.528-.146-.935-.44-1.221-.286-.286-.663-.429-1.133-.429a1.7 1.7 0 00-.935.253c-.256.161-.458.4-.605.715-.139.308-.209.682-.209 1.122 0 .433.074.807.22 1.122.147.315.352.557.616.726.272.161.594.242.968.242.404 0 .73-.077.98-.231.256-.154.461-.363.615-.627l.693.407c-.139.25-.319.466-.539.649a2.326 2.326 0 01-.759.429 3.054 3.054 0 01-.968.143z" fill="#fff"/><path d="M17.82 13.4h7.784c2.688 0 4.928.943 6.72 2.828 1.81 1.867 2.716 4.19 2.716 6.972 0 2.781-.905 5.105-2.716 6.972C30.532 32.057 28.292 33 25.604 33H17.82V13.4zm3.864 15.904h3.92c1.699 0 3.08-.56 4.144-1.68 1.064-1.157 1.596-2.632 1.596-4.424 0-1.81-.532-3.276-1.596-4.396-1.064-1.139-2.445-1.708-4.144-1.708h-3.92v12.208zM46.99 26.56V19h3.612v14H46.99v-1.568c-.859 1.307-2.25 1.96-4.172 1.96-1.531 0-2.8-.513-3.808-1.54-.99-1.045-1.484-2.464-1.484-4.256V19h3.612v8.148c0 .915.242 1.624.728 2.128.504.504 1.185.756 2.044.756.952 0 1.698-.29 2.24-.868.56-.597.84-1.465.84-2.604zm15.068-7.952c1.885 0 3.49.719 4.816 2.156 1.344 1.437 2.016 3.183 2.016 5.236 0 2.09-.672 3.845-2.016 5.264-1.307 1.419-2.912 2.128-4.816 2.128-1.96 0-3.472-.681-4.536-2.044V33H53.91V13.4h3.612v7.252c1.064-1.363 2.576-2.044 4.536-2.044zm-3.444 10.248c.728.728 1.652 1.092 2.772 1.092 1.12 0 2.044-.364 2.772-1.092.746-.747 1.12-1.699 1.12-2.856 0-1.157-.374-2.1-1.12-2.828-.728-.747-1.652-1.12-2.772-1.12-1.12 0-2.044.373-2.772 1.12-.728.728-1.092 1.67-1.092 2.828 0 1.157.364 2.11 1.092 2.856zm23.463-8.204V19h3.612v14h-3.612v-1.652c-1.082 1.363-2.604 2.044-4.564 2.044-1.867 0-3.472-.71-4.816-2.128-1.325-1.437-1.988-3.192-1.988-5.264 0-2.053.663-3.799 1.988-5.236 1.344-1.437 2.95-2.156 4.816-2.156 1.96 0 3.481.681 4.564 2.044zm-6.664 8.204c.728.728 1.652 1.092 2.772 1.092 1.12 0 2.044-.364 2.772-1.092.747-.747 1.12-1.699 1.12-2.856 0-1.157-.373-2.1-1.12-2.828-.728-.747-1.652-1.12-2.772-1.12-1.12 0-2.044.373-2.772 1.12-.728.728-1.092 1.67-1.092 2.828 0 1.157.364 2.11 1.092 2.856zM90.757 17.32c-.598 0-1.12-.215-1.569-.644-.429-.448-.644-.97-.644-1.568 0-.597.215-1.12.645-1.568.448-.448.97-.672 1.568-.672a2.09 2.09 0 011.567.672c.448.448.672.97.672 1.568 0 .597-.224 1.12-.671 1.568-.43.43-.953.644-1.569.644zM92.576 33h-3.612V19h3.611v14zm18.397 0h-4.172l-3.948-6.804h-2.94V33H96.05V13.4h7.84c1.811 0 3.351.635 4.62 1.904 1.27 1.27 1.904 2.8 1.904 4.592 0 1.213-.345 2.343-1.036 3.388a6.514 6.514 0 01-2.744 2.324l4.34 7.392zm-7.084-15.988h-3.975v5.796h3.975c.728 0 1.354-.28 1.876-.84.523-.579.784-1.27.784-2.072 0-.803-.261-1.484-.784-2.044-.522-.56-1.148-.84-1.876-.84zm22.089 10.472h-10.556c.466 1.755 1.782 2.632 3.948 2.632 1.381 0 2.426-.467 3.136-1.4l2.912 1.68c-1.382 1.997-3.416 2.996-6.104 2.996-2.315 0-4.172-.7-5.572-2.1-1.4-1.4-2.1-3.164-2.1-5.292 0-2.09.69-3.845 2.072-5.264 1.362-1.419 3.136-2.128 5.32-2.128 2.072 0 3.761.71 5.068 2.128 1.344 1.419 2.016 3.173 2.016 5.264a10 10 0 01-.14 1.484zm-10.612-2.8h7.14c-.206-.915-.626-1.615-1.26-2.1-.616-.485-1.354-.728-2.212-.728-.971 0-1.774.252-2.408.756-.635.485-1.055 1.176-1.26 2.072zm23.804-4.032V19h3.612v14h-3.612v-1.652c-1.083 1.363-2.604 2.044-4.564 2.044-1.867 0-3.472-.71-4.816-2.128-1.325-1.437-1.988-3.192-1.988-5.264 0-2.053.663-3.799 1.988-5.236 1.344-1.437 2.949-2.156 4.816-2.156 1.96 0 3.481.681 4.564 2.044zm-6.664 8.204c.728.728 1.652 1.092 2.772 1.092 1.12 0 2.044-.364 2.772-1.092.747-.747 1.12-1.699 1.12-2.856 0-1.157-.373-2.1-1.12-2.828-.728-.747-1.652-1.12-2.772-1.12-1.12 0-2.044.373-2.772 1.12-.728.728-1.092 1.67-1.092 2.828 0 1.157.364 2.11 1.092 2.856zM149.67 33h-3.612V12.56h3.612V33zm11.314-14v3.472h-3.164v5.824c0 .485.122.84.364 1.064.243.224.598.355 1.064.392.467.019 1.046.01 1.736-.028V33c-2.445.28-4.19.056-5.236-.672-1.026-.747-1.54-2.09-1.54-4.032v-5.824h-2.436V19h2.436v-2.828l3.612-1.092V19h3.164zm8.868 9.408L172.96 19h3.864l-5.096 14c-.728 2.016-1.699 3.472-2.912 4.368-1.195.915-2.688 1.325-4.48 1.232v-3.36c.952.019 1.717-.187 2.296-.616.578-.43 1.036-1.12 1.372-2.072L162.264 19h3.948l3.64 9.408z" fill="#fff"/><path d="M41 1H1v63h40" stroke="#FCD54C" stroke-width="2"/></svg>